<?xml version="1.0" encoding="UTF-8"?>
<svg id="Layer_2" data-name="Layer 2" xmlns="http://www.w3.org/2000/svg" width="787.57" height="964.57" viewBox="0 0 787.57 964.57">
  <defs>
    <style>
      .cls-1, .cls-2 {
        fill: #02303f;
      }

      .cls-2 {
        fill-rule: evenodd;
      }
    </style>
  </defs>
  <g id="Layer_1-2" data-name="Layer 1">
    <g>
      <path class="cls-1" d="M787.57,876.61v-48.1h-48.11v21.04h24.53v15.93c-6.22,4.45-13.87,6.7-22.94,6.7-4.96,0-9.47-.87-13.53-2.61-4.06-1.74-7.6-4.23-10.6-7.39-3.01-3.16-5.33-6.88-6.96-11.18-1.63-4.27-2.45-8.96-2.45-14.03v-.31c0-4.75.82-9.24,2.45-13.4,1.64-4.19,3.91-7.83,6.81-10.95,2.9-3.11,6.28-5.61,10.13-7.46,3.85-1.85,7.99-2.77,12.43-2.77,3.16,0,6.06.26,8.7.79,2.64.53,5.09,1.26,7.36,2.21,2.27.95,4.46,2.11,6.56,3.48,2.11,1.38,4.22,2.95,6.33,4.74l15.35-18.51c-2.85-2.43-5.8-4.59-8.86-6.49-3.06-1.9-6.33-3.48-9.81-4.74-3.48-1.27-7.25-2.25-11.32-2.93-4.06-.68-8.57-1.02-13.53-1.02-8.44,0-16.19,1.5-23.26,4.51-7.07,3-13.19,7.12-18.35,12.34-5.17,5.22-9.21,11.29-12.1,18.2-2.9,6.91-4.35,14.31-4.35,22.23v.32c0,8.23,1.42,15.82,4.27,22.79,2.85,6.96,6.83,12.97,11.95,18.03,5.11,5.07,11.23,9.02,18.35,11.87,7.12,2.85,15.01,4.27,23.66,4.27,10.12,0,19.12-1.72,26.98-5.14,7.86-3.43,14.64-7.56,20.33-12.42M660.35,892.28v-110.77h-24.05v68.21l-51.9-68.21h-22.47v110.77h24.05v-70.42l53.65,70.42h20.73ZM534.23,892.28v-110.77h-24.37v110.77h24.37ZM461.59,837.22c0,4.96-.82,9.44-2.45,13.44-1.64,4.01-3.9,7.5-6.8,10.45-2.9,2.95-6.41,5.22-10.52,6.8-4.11,1.58-8.65,2.37-13.61,2.37h-18.83v-66.77h18.83c4.96,0,9.49.81,13.61,2.45,4.12,1.64,7.62,3.93,10.52,6.89s5.17,6.49,6.8,10.6c1.64,4.11,2.45,8.59,2.45,13.45v.32ZM487.07,836.9v-.32c0-7.81-1.42-15.06-4.27-21.76-2.85-6.7-6.88-12.52-12.1-17.49-5.22-4.96-11.45-8.83-18.67-11.63-7.23-2.79-15.16-4.19-23.82-4.19h-43.2v110.77h43.2c8.65,0,16.59-1.43,23.82-4.27s13.45-6.75,18.67-11.7c5.22-4.96,9.26-10.81,12.1-17.57,2.85-6.76,4.27-14.03,4.27-21.84ZM366.65,892.28v-22h-55.22v-88.77h-24.37v110.77h79.59ZM259.36,892.28v-110.77h-24.37v110.77h24.37ZM209.04,844.02v-62.51h-24.37v63.45c0,8.86-2.11,15.51-6.33,19.94-4.22,4.44-10.08,6.65-17.56,6.65s-13.34-2.29-17.57-6.89c-4.22-4.59-6.33-11.42-6.33-20.49v-62.66h-24.37v63.3c0,16.35,4.28,28.64,12.82,36.86,8.54,8.24,20.25,12.35,35.13,12.35,7.39,0,14.08-1.02,20.1-3.08,6.01-2.06,11.13-5.17,15.35-9.33,4.22-4.17,7.47-9.37,9.73-15.59,2.27-6.22,3.4-13.55,3.4-21.99ZM69.94,858.89c0,4.12-1.53,7.15-4.59,9.11-3.06,1.94-7.28,2.92-12.66,2.92h-28.96v-24.36h28.17c6.33,0,10.92,1.08,13.76,3.24,2.85,2.17,4.27,5.09,4.27,8.79v.31h0ZM63.77,814.58c0,4.11-1.58,7.1-4.75,8.94-3.17,1.84-7.44,2.77-12.82,2.77h-22.47v-23.42h24.05c5.17,0,9.13.98,11.87,2.93,2.74,1.95,4.12,4.77,4.12,8.46v.32h0ZM94,861.9v-.32c0-7.39-1.85-13.16-5.51-17.33-3.66-4.17-8.73-7.46-15.11-9.89,1.98-1.06,3.85-2.33,5.57-3.8,1.74-1.48,3.24-3.19,4.56-5.14,1.32-1.95,2.35-4.14,3.14-6.57.79-2.43,1.19-5.23,1.19-8.39v-.32c0-8.75-3.24-15.72-9.71-20.88-6.49-5.17-15.4-7.76-26.77-7.76H0v110.77h52.62c6.2,0,11.87-.64,16.98-1.9,5.09-1.26,9.47-3.17,13.11-5.7,3.61-2.53,6.41-5.7,8.36-9.5,1.95-3.79,2.93-8.23,2.93-13.29Z"/>
      <path class="cls-1" d="M621.85,963.95v-36.51h-7.93v22.48l-17.1-22.48h-7.4v36.51h7.93v-23.21l17.68,23.21h6.83ZM572.94,958.78v-15.85h-15.85v6.94h8.08v5.25c-2.05,1.47-4.57,2.21-7.56,2.21-1.63,0-3.12-.29-4.46-.86-1.34-.57-2.5-1.39-3.49-2.43-.99-1.04-1.76-2.27-2.29-3.69-.54-1.41-.81-2.95-.81-4.62v-.1c0-1.56.27-3.03.81-4.41.54-1.38,1.29-2.58,2.24-3.6.96-1.02,2.07-1.85,3.34-2.46,1.27-.61,2.63-.92,4.09-.92,1.04,0,2,.09,2.87.26.87.18,1.68.42,2.42.73.75.31,1.47.7,2.16,1.15.7.45,1.39.98,2.09,1.56l5.06-6.09c-.94-.81-1.91-1.51-2.92-2.14-1.01-.63-2.08-1.15-3.23-1.56-1.15-.42-2.39-.74-3.73-.97-1.34-.23-2.82-.34-4.46-.34-2.78,0-5.34.5-7.67,1.49-2.33.99-4.34,2.34-6.05,4.07-1.7,1.72-3.03,3.72-3.99,6-.96,2.28-1.43,4.71-1.43,7.32v.1c0,2.71.47,5.21,1.41,7.51.94,2.29,2.25,4.27,3.94,5.94,1.68,1.67,3.7,2.97,6.05,3.91,2.35.94,4.94,1.4,7.79,1.4,3.34,0,6.3-.56,8.89-1.69,2.59-1.13,4.82-2.49,6.7-4.09ZM521.9,963.95v-36.51h-8.03v36.51h8.03ZM497.77,953.15v-.11c0-1.59-.25-2.97-.76-4.12s-1.26-2.14-2.25-3c-.99-.85-2.22-1.59-3.66-2.19-1.44-.61-3.09-1.16-4.95-1.65-1.56-.42-2.86-.78-3.89-1.1-1.03-.31-1.83-.64-2.43-.99-.59-.34-1-.73-1.22-1.17-.23-.43-.34-.94-.34-1.54v-.1c0-.91.39-1.66,1.17-2.27.78-.61,1.96-.91,3.52-.91s3.13.32,4.69.96c1.56.64,3.16,1.52,4.8,2.64l4.17-6.05c-1.88-1.5-3.94-2.65-6.18-3.44-2.24-.81-4.7-1.21-7.38-1.21-1.88,0-3.6.26-5.15.78-1.56.52-2.91,1.27-4.02,2.25-1.12.98-1.99,2.12-2.62,3.47-.62,1.33-.93,2.84-.93,4.51v.11c0,1.81.29,3.32.86,4.53.57,1.22,1.39,2.24,2.43,3.05,1.04.82,2.32,1.51,3.82,2.07,1.5.55,3.17,1.06,5.02,1.5,1.53.38,2.78.75,3.73,1.1.96.34,1.7.69,2.25,1.04.54.35.91.72,1.09,1.12.19.4.29.86.29,1.38v.1c0,1.08-.46,1.92-1.38,2.53-.92.61-2.21.91-3.88.91-2.09,0-4.01-.4-5.76-1.2s-3.47-1.88-5.14-3.24l-4.75,5.69c2.19,1.98,4.62,3.45,7.3,4.4,2.67.96,5.4,1.44,8.18,1.44,1.98,0,3.79-.25,5.42-.76,1.62-.5,3.03-1.24,4.21-2.19,1.17-.96,2.09-2.14,2.74-3.55.65-1.41.98-3.02.98-4.83ZM455.44,963.95v-7.15h-19.82v-7.67h17.21v-7.15h-17.21v-7.41h19.55v-7.15h-27.48v36.51h27.74ZM403.41,945.8c0,1.63-.27,3.11-.81,4.43-.54,1.33-1.28,2.47-2.24,3.44-.96.98-2.11,1.73-3.47,2.25-1.35.52-2.85.78-4.48.78h-6.21v-22h6.21c1.63,0,3.13.27,4.48.81,1.36.54,2.51,1.29,3.47,2.27.96.97,1.7,2.14,2.24,3.49.54,1.36.81,2.83.81,4.44v.1ZM411.81,945.7v-.11c0-2.57-.47-4.96-1.41-7.17-.94-2.21-2.27-4.13-3.99-5.76-1.72-1.64-3.77-2.91-6.15-3.83-2.38-.92-5-1.38-7.85-1.38h-14.23v36.51h14.23c2.85,0,5.47-.47,7.85-1.41,2.38-.94,4.43-2.23,6.15-3.87,1.72-1.63,3.05-3.56,3.99-5.79.94-2.22,1.41-4.62,1.41-7.19ZM338.24,945.8c0,1.56-.27,3.03-.81,4.4-.54,1.38-1.29,2.58-2.24,3.63-.96,1.04-2.11,1.85-3.47,2.45-1.35.59-2.83.89-4.43.89s-3.12-.31-4.46-.92c-1.34-.6-2.5-1.43-3.49-2.48-.99-1.04-1.76-2.25-2.29-3.65-.54-1.39-.81-2.87-.81-4.44v-.11c0-1.56.27-3.03.81-4.4.54-1.38,1.29-2.59,2.24-3.63.96-1.04,2.1-1.85,3.44-2.45,1.34-.59,2.82-.89,4.46-.89s3.08.31,4.43.92c1.35.6,2.53,1.43,3.52,2.47.99,1.04,1.76,2.26,2.29,3.65.54,1.39.81,2.87.81,4.44v.11h0ZM346.64,945.7v-.11c0-2.6-.48-5.05-1.43-7.32-.95-2.28-2.29-4.26-4.01-5.95-1.72-1.69-3.76-3.02-6.13-4.01-2.36-.99-4.95-1.49-7.77-1.49s-5.42.5-7.8,1.49-4.43,2.34-6.15,4.07c-1.72,1.72-3.07,3.72-4.04,6-.97,2.28-1.46,4.71-1.46,7.32v.1c0,2.6.48,5.04,1.43,7.32.95,2.28,2.29,4.26,4.01,5.94,1.72,1.69,3.76,3.03,6.13,4.02,2.37.99,4.95,1.48,7.77,1.48s5.41-.49,7.8-1.48c2.38-.99,4.43-2.35,6.15-4.07,1.72-1.72,3.07-3.72,4.04-6,.97-2.28,1.46-4.72,1.46-7.32ZM292.99,958.78v-15.85h-15.85v6.94h8.08v5.25c-2.05,1.47-4.57,2.21-7.56,2.21-1.63,0-3.12-.29-4.46-.86-1.34-.57-2.5-1.39-3.49-2.43s-1.75-2.27-2.29-3.69c-.54-1.41-.81-2.95-.81-4.62v-.1c0-1.56.27-3.03.81-4.41.54-1.38,1.29-2.58,2.24-3.6.96-1.02,2.07-1.85,3.34-2.46,1.27-.61,2.63-.92,4.09-.92,1.04,0,2,.09,2.87.26.87.18,1.68.42,2.42.73.75.31,1.47.7,2.16,1.15.7.45,1.39.98,2.09,1.56l5.06-6.09c-.94-.81-1.91-1.51-2.92-2.14-1.01-.63-2.08-1.15-3.23-1.56-1.15-.42-2.39-.74-3.73-.97-1.34-.23-2.82-.34-4.46-.34-2.78,0-5.34.5-7.67,1.49-2.33.99-4.34,2.34-6.05,4.07-1.7,1.72-3.03,3.72-3.99,6-.96,2.28-1.43,4.71-1.43,7.32v.1c0,2.71.47,5.21,1.41,7.51.93,2.29,2.25,4.27,3.93,5.94,1.68,1.67,3.7,2.97,6.05,3.91,2.35.94,4.94,1.4,7.79,1.4,3.34,0,6.3-.56,8.89-1.69,2.59-1.13,4.83-2.49,6.7-4.09ZM235.54,945.8c0,1.56-.27,3.03-.81,4.4-.54,1.38-1.29,2.58-2.24,3.63-.96,1.04-2.11,1.85-3.47,2.45-1.35.59-2.83.89-4.43.89s-3.12-.31-4.46-.92c-1.34-.6-2.5-1.43-3.5-2.48-.99-1.04-1.76-2.25-2.29-3.65-.54-1.39-.81-2.87-.81-4.44v-.11c0-1.56.27-3.03.81-4.4.54-1.38,1.29-2.59,2.24-3.63.96-1.04,2.1-1.85,3.44-2.45,1.34-.59,2.82-.89,4.46-.89s3.08.31,4.43.92c1.36.6,2.53,1.43,3.52,2.47.99,1.04,1.76,2.26,2.29,3.65.54,1.39.81,2.87.81,4.44v.11h0ZM243.93,945.7v-.11c0-2.6-.48-5.05-1.44-7.32-.95-2.28-2.29-4.26-4.01-5.95-1.72-1.69-3.76-3.02-6.13-4.01-2.36-.99-4.95-1.49-7.77-1.49s-5.41.5-7.8,1.49c-2.38.99-4.43,2.34-6.15,4.07-1.72,1.72-3.07,3.72-4.04,6-.97,2.28-1.46,4.71-1.46,7.32v.1c0,2.6.48,5.04,1.43,7.32.96,2.28,2.29,4.26,4.02,5.94,1.72,1.69,3.76,3.03,6.13,4.02,2.36.99,4.95,1.48,7.77,1.48s5.41-.49,7.79-1.48c2.38-.99,4.43-2.35,6.15-4.07,1.72-1.72,3.07-3.72,4.04-6,.97-2.28,1.46-4.72,1.46-7.32ZM191.96,963.95v-7.25h-18.2v-29.26h-8.03v36.51h26.23Z"/>
      <path class="cls-2" d="M634.18,444.61c-66.95-66.95-133.91-133.9-200.85-200.85l-65.1,65.1-65.1-65.1-175.29,175.29-56.7-56.7L393.79,39.71l322.65,322.65-82.26,82.26ZM211.53,502.75l182.25-182.25,182.25,182.25-182.25,182.25-182.25-182.25ZM389.67,503.97v-36.51h-36.5v36.51h36.5ZM397.91,503.97h36.5v-36.51s-36.5,0-36.5,0v36.51ZM397.91,512.21v36.5h36.51v-36.5h-36.51ZM389.67,512.21h-36.5v36.5h36.5v-36.5ZM126.58,457.51l137.01-137.01,46.5,46.5-137.01,137,220.71,220.71,362.36-362.36L393.79,0,31.43,362.35l95.15,95.16Z"/>
    </g>
  </g>
</svg>