<?xml version="1.0" encoding="UTF-8"?>
<svg id="Layer_2" data-name="Layer 2" xmlns="http://www.w3.org/2000/svg" width="860.89" height="964.57" viewBox="0 0 860.89 964.57">
  <defs>
    <style>
      .cls-1, .cls-2 {
        fill: #02303f;
      }

      .cls-2 {
        fill-rule: evenodd;
      }
    </style>
  </defs>
  <g id="Layer_1-2" data-name="Layer 1">
    <g>
      <path class="cls-1" d="M824.23,876.62v-48.11h-48.1v21.05h24.53v15.93c-6.22,4.46-13.87,6.7-22.95,6.7-4.96,0-9.47-.87-13.53-2.61-4.06-1.74-7.6-4.22-10.6-7.38-3.01-3.17-5.33-6.89-6.96-11.18-1.64-4.27-2.45-8.97-2.45-14.03v-.32c0-4.74.82-9.23,2.45-13.4,1.64-4.19,3.9-7.83,6.8-10.94,2.9-3.12,6.28-5.62,10.12-7.47,3.85-1.84,7.99-2.77,12.42-2.77,3.17,0,6.07.27,8.7.79,2.64.53,5.09,1.27,7.36,2.21,2.27.95,4.46,2.12,6.56,3.48,2.11,1.38,4.22,2.95,6.33,4.75l15.35-18.51c-2.85-2.43-5.8-4.59-8.86-6.49-3.06-1.9-6.33-3.48-9.81-4.75-3.48-1.27-7.25-2.25-11.31-2.93-4.06-.68-8.57-1.02-13.53-1.02-8.44,0-16.19,1.51-23.26,4.51-7.07,3.01-13.19,7.12-18.35,12.35-5.17,5.22-9.21,11.29-12.11,18.2s-4.35,14.32-4.35,22.23v.32c0,8.23,1.42,15.82,4.27,22.79,2.85,6.96,6.83,12.97,11.95,18.04,5.12,5.06,11.23,9.02,18.35,11.86,7.12,2.85,15.01,4.27,23.66,4.27,10.13,0,19.12-1.72,26.98-5.14,7.86-3.42,14.64-7.57,20.34-12.42M697.01,892.29v-110.77h-24.05v68.2l-51.9-68.2h-22.47v110.77h24.05v-70.42l53.65,70.42h20.73ZM570.89,892.29v-110.77h-24.37v110.77h24.37ZM498.25,837.22c0,4.96-.82,9.44-2.45,13.45-1.64,4-3.9,7.49-6.81,10.44-2.9,2.95-6.41,5.23-10.52,6.8-4.11,1.59-8.65,2.38-13.61,2.38h-18.83v-66.78h18.83c4.96,0,9.49.82,13.61,2.46,4.11,1.63,7.62,3.92,10.52,6.88,2.9,2.95,5.17,6.49,6.81,10.6,1.63,4.12,2.45,8.6,2.45,13.45v.32ZM523.73,836.9v-.32c0-7.8-1.42-15.05-4.27-21.76-2.85-6.7-6.89-12.52-12.1-17.48-5.22-4.96-11.45-8.84-18.67-11.63-7.23-2.8-15.17-4.2-23.82-4.2h-43.2v110.77h43.2c8.65,0,16.59-1.42,23.82-4.27s13.45-6.75,18.67-11.71c5.22-4.96,9.26-10.82,12.1-17.57,2.85-6.75,4.27-14.03,4.27-21.83ZM403.31,892.29v-22h-55.23v-88.78h-24.37v110.77h79.6ZM296.02,892.29v-110.77h-24.37v110.77h24.37ZM245.7,844.02v-62.51h-24.37v63.46c0,8.86-2.11,15.5-6.33,19.94-4.22,4.43-10.07,6.64-17.57,6.64s-13.34-2.29-17.56-6.88c-4.22-4.59-6.33-11.43-6.33-20.5v-62.66h-24.37v63.3c0,16.36,4.27,28.65,12.82,36.87s20.25,12.34,35.13,12.34c7.39,0,14.08-1.02,20.1-3.08,6.01-2.05,11.13-5.17,15.35-9.33,4.22-4.17,7.46-9.36,9.73-15.58s3.4-13.56,3.4-22ZM106.6,858.89c0,4.11-1.53,7.15-4.59,9.1-3.06,1.95-7.28,2.93-12.66,2.93h-28.96v-24.37h28.17c6.33,0,10.92,1.08,13.77,3.25,2.85,2.16,4.27,5.09,4.27,8.78v.32h0ZM100.43,814.58c0,4.12-1.58,7.1-4.75,8.94-3.17,1.85-7.44,2.77-12.82,2.77h-22.47v-23.42h24.05c5.17,0,9.13.98,11.87,2.93s4.11,4.78,4.11,8.46v.32h0ZM130.66,861.9v-.32c0-7.38-1.85-13.16-5.51-17.32s-8.73-7.46-15.11-9.89c1.98-1.06,3.85-2.32,5.57-3.8,1.74-1.47,3.24-3.19,4.56-5.14s2.35-4.14,3.14-6.57c.79-2.43,1.19-5.22,1.19-8.38v-.32c0-8.76-3.24-15.72-9.7-20.89-6.49-5.17-15.4-7.75-26.77-7.75h-51.35v110.77h52.61c6.2,0,11.87-.64,16.98-1.9,5.09-1.26,9.47-3.17,13.11-5.7,3.61-2.53,6.41-5.7,8.36-9.49,1.95-3.8,2.93-8.23,2.93-13.3Z"/>
      <path class="cls-1" d="M658.5,963.95v-36.5h-7.93v22.47l-17.1-22.47h-7.4v36.5h7.93v-23.21l17.68,23.21h6.83ZM609.6,958.79v-15.85h-15.85v6.93h8.08v5.25c-2.05,1.47-4.57,2.21-7.56,2.21-1.63,0-3.12-.28-4.46-.86-1.34-.57-2.5-1.38-3.5-2.43-.99-1.04-1.75-2.26-2.29-3.68-.54-1.41-.81-2.96-.81-4.63v-.1c0-1.56.27-3.04.81-4.42.54-1.38,1.29-2.58,2.24-3.6s2.07-1.85,3.34-2.46c1.27-.61,2.63-.91,4.09-.91,1.04,0,2,.08,2.87.26.87.17,1.68.42,2.43.72.75.32,1.47.7,2.17,1.15.7.46,1.39.98,2.08,1.56l5.06-6.1c-.94-.8-1.91-1.51-2.92-2.14-1.01-.63-2.09-1.15-3.23-1.56s-2.39-.74-3.73-.97c-1.34-.22-2.82-.33-4.46-.33-2.78,0-5.34.5-7.67,1.48-2.33.99-4.34,2.35-6.05,4.07-1.71,1.73-3.03,3.72-3.99,6-.96,2.28-1.44,4.72-1.44,7.32v.1c0,2.71.47,5.22,1.41,7.51.94,2.29,2.25,4.27,3.94,5.94,1.69,1.67,3.7,2.97,6.05,3.92,2.35.94,4.94,1.41,7.79,1.41,3.34,0,6.3-.57,8.89-1.7,2.59-1.12,4.82-2.49,6.7-4.08ZM558.56,963.95v-36.5h-8.03v36.5h8.03ZM534.43,953.16v-.11c0-1.6-.25-2.98-.75-4.13-.51-1.15-1.26-2.14-2.25-2.99-.99-.85-2.22-1.58-3.66-2.19s-3.09-1.16-4.95-1.65c-1.56-.41-2.86-.78-3.89-1.1-1.03-.31-1.83-.64-2.43-.99-.59-.35-1-.74-1.23-1.17-.22-.44-.34-.95-.34-1.54v-.1c0-.9.39-1.66,1.17-2.27.78-.61,1.95-.91,3.52-.91s3.13.32,4.69.97c1.56.64,3.16,1.51,4.8,2.63l4.17-6.05c-1.88-1.5-3.94-2.65-6.18-3.44-2.24-.8-4.7-1.2-7.38-1.2-1.88,0-3.6.26-5.15.78-1.56.52-2.91,1.27-4.02,2.24-1.12.98-1.99,2.13-2.62,3.47-.62,1.34-.93,2.85-.93,4.51v.1c0,1.81.29,3.32.86,4.54.58,1.21,1.39,2.23,2.43,3.05,1.04.81,2.32,1.5,3.81,2.06,1.51.55,3.17,1.06,5.02,1.51,1.53.37,2.78.74,3.74,1.09.96.35,1.7.69,2.25,1.04.54.35.91.73,1.09,1.12.19.4.29.86.29,1.38v.1c0,1.08-.46,1.93-1.38,2.53-.92.61-2.21.92-3.88.92-2.09,0-4.01-.41-5.76-1.2-1.76-.8-3.47-1.88-5.14-3.23l-4.74,5.68c2.19,1.99,4.62,3.45,7.3,4.41,2.68.95,5.41,1.43,8.19,1.43,1.98,0,3.79-.25,5.41-.76,1.63-.5,3.03-1.24,4.21-2.19,1.17-.96,2.08-2.14,2.75-3.55.65-1.41.98-3.01.98-4.82ZM492.1,963.95v-7.15h-19.82v-7.67h17.21v-7.15h-17.21v-7.41h19.55v-7.14h-27.48v36.5h27.74ZM440.07,945.8c0,1.64-.27,3.11-.81,4.44-.54,1.32-1.29,2.47-2.24,3.44-.96.97-2.11,1.72-3.47,2.24-1.35.52-2.85.78-4.48.78h-6.2v-22h6.2c1.63,0,3.13.27,4.48.81,1.36.54,2.51,1.29,3.47,2.26.95.98,1.7,2.14,2.24,3.5.54,1.35.81,2.83.81,4.43v.11ZM448.47,945.7v-.1c0-2.58-.47-4.97-1.41-7.18-.94-2.21-2.27-4.13-3.99-5.76-1.72-1.63-3.77-2.91-6.15-3.82-2.38-.93-5-1.38-7.85-1.38h-14.23v36.5h14.23c2.85,0,5.47-.47,7.85-1.41,2.38-.94,4.43-2.23,6.15-3.86,1.72-1.64,3.05-3.56,3.99-5.79.94-2.22,1.41-4.62,1.41-7.19ZM374.9,945.8c0,1.56-.27,3.03-.81,4.41-.54,1.37-1.29,2.58-2.24,3.62-.96,1.04-2.11,1.85-3.47,2.45-1.36.59-2.83.89-4.43.89s-3.12-.31-4.46-.91c-1.34-.61-2.5-1.43-3.49-2.48-.99-1.04-1.75-2.25-2.29-3.65-.54-1.39-.81-2.87-.81-4.44v-.1c0-1.57.27-3.03.81-4.41.54-1.38,1.29-2.58,2.24-3.62.96-1.05,2.1-1.86,3.44-2.45,1.34-.59,2.82-.89,4.46-.89s3.08.3,4.43.91c1.35.6,2.53,1.43,3.52,2.47.99,1.04,1.76,2.26,2.3,3.65.54,1.38.81,2.86.81,4.43v.11ZM383.3,945.7v-.1c0-2.61-.48-5.05-1.44-7.33-.95-2.28-2.29-4.26-4.01-5.94-1.72-1.69-3.76-3.03-6.13-4.02-2.36-.99-4.95-1.48-7.77-1.48s-5.42.5-7.8,1.48c-2.38.99-4.43,2.35-6.15,4.07-1.72,1.73-3.07,3.72-4.04,6-.97,2.28-1.46,4.72-1.46,7.32v.1c0,2.6.48,5.05,1.43,7.32.96,2.28,2.3,4.26,4.02,5.95,1.72,1.69,3.76,3.03,6.12,4.01,2.36.99,4.95,1.49,7.77,1.49s5.41-.5,7.79-1.49c2.38-.98,4.43-2.34,6.15-4.07,1.72-1.72,3.07-3.72,4.04-6,.97-2.27,1.46-4.72,1.46-7.32ZM329.65,958.79v-15.85h-15.85v6.93h8.08v5.25c-2.05,1.47-4.57,2.21-7.56,2.21-1.63,0-3.12-.28-4.46-.86-1.34-.57-2.51-1.38-3.49-2.43-.99-1.04-1.76-2.26-2.3-3.68-.54-1.41-.81-2.96-.81-4.63v-.1c0-1.56.27-3.04.81-4.42.54-1.38,1.29-2.58,2.24-3.6s2.07-1.85,3.34-2.46c1.27-.61,2.64-.91,4.09-.91,1.04,0,2,.08,2.87.26.87.17,1.67.42,2.42.72.75.32,1.47.7,2.17,1.15.7.46,1.39.98,2.08,1.56l5.06-6.1c-.94-.8-1.91-1.51-2.92-2.14-1.01-.63-2.08-1.15-3.23-1.56-1.15-.42-2.39-.74-3.73-.97-1.34-.22-2.82-.33-4.46-.33-2.78,0-5.34.5-7.67,1.48-2.33.99-4.34,2.35-6.05,4.07-1.7,1.73-3.03,3.72-3.99,6-.96,2.28-1.44,4.72-1.44,7.32v.1c0,2.71.47,5.22,1.41,7.51s2.25,4.27,3.94,5.94c1.69,1.67,3.7,2.97,6.05,3.92,2.34.94,4.94,1.41,7.79,1.41,3.34,0,6.3-.57,8.89-1.7,2.59-1.12,4.83-2.49,6.7-4.08ZM272.2,945.8c0,1.56-.27,3.03-.81,4.41-.54,1.37-1.29,2.58-2.24,3.62-.96,1.04-2.11,1.85-3.47,2.45-1.35.59-2.83.89-4.43.89s-3.12-.31-4.46-.91c-1.34-.61-2.5-1.43-3.49-2.48-.99-1.04-1.76-2.25-2.29-3.65-.54-1.39-.81-2.87-.81-4.44v-.1c0-1.57.27-3.03.81-4.41.54-1.38,1.28-2.58,2.24-3.62.96-1.05,2.1-1.86,3.44-2.45,1.34-.59,2.82-.89,4.46-.89s3.08.3,4.43.91c1.35.6,2.53,1.43,3.52,2.47s1.76,2.26,2.29,3.65c.54,1.38.81,2.86.81,4.43v.11ZM280.59,945.7v-.1c0-2.61-.48-5.05-1.44-7.33-.96-2.28-2.29-4.26-4.01-5.94-1.72-1.69-3.76-3.03-6.13-4.02-2.36-.99-4.95-1.48-7.77-1.48s-5.41.5-7.79,1.48c-2.38.99-4.43,2.35-6.15,4.07-1.72,1.73-3.07,3.72-4.04,6-.97,2.28-1.46,4.72-1.46,7.32v.1c0,2.6.48,5.05,1.43,7.32.95,2.28,2.29,4.26,4.01,5.95,1.72,1.69,3.76,3.03,6.13,4.01,2.37.99,4.96,1.49,7.77,1.49s5.41-.5,7.8-1.49c2.38-.98,4.43-2.34,6.15-4.07,1.72-1.72,3.07-3.72,4.04-6,.97-2.27,1.46-4.72,1.46-7.32ZM228.62,963.95v-7.25h-18.2v-29.25h-8.03v36.5h26.23Z"/>
      <path class="cls-2" d="M379.66,468.31h45.64v45.64h-45.64v-45.64ZM379.66,412.38h45.64v45.64h-45.64v-45.64ZM435.59,468.31h45.64v45.64s-45.64,0-45.64,0v-45.64h0ZM692.25,577.58h168.64L430.45,147.14,0,577.58h168.65v-66.8l243.28-243.27c10.23-10.23,26.83-10.23,37.06,0l243.27,243.27v66.8h0ZM435.59,412.38h45.64v45.64h-45.64v-45.64h0Z"/>
      <path class="cls-2" d="M792.8,610.04v114.67s-724.71,0-724.71,0v-114.67h32.47v82.21h659.79v-82.21h32.46ZM84.32,0h708.49c-.02,154.52-.02,309.05-.02,463.57l-32.45-32.45V32.46H100.55v398.66l-32.47,32.47V0h16.23Z"/>
    </g>
  </g>
</svg>