<?xml version="1.0" encoding="UTF-8"?>
<svg id="Layer_2" data-name="Layer 2" xmlns="http://www.w3.org/2000/svg" width="787.57" height="964.57" viewBox="0 0 787.57 964.57">
  <defs>
    <style>
      .cls-1, .cls-2 {
        fill: #02303f;
      }

      .cls-2 {
        fill-rule: evenodd;
      }
    </style>
  </defs>
  <g id="Layer_1-2" data-name="Layer 1">
    <g>
      <path class="cls-1" d="M787.57,876.62v-48.11h-48.11v21.05h24.53v15.93c-6.22,4.46-13.87,6.7-22.94,6.7-4.96,0-9.47-.87-13.53-2.61-4.06-1.74-7.59-4.22-10.6-7.38-3.01-3.17-5.33-6.89-6.96-11.18-1.64-4.27-2.45-8.97-2.45-14.03v-.32c0-4.74.82-9.23,2.45-13.4,1.64-4.19,3.9-7.83,6.8-10.94,2.9-3.12,6.27-5.62,10.12-7.47,3.86-1.84,8-2.77,12.43-2.77,3.17,0,6.06.27,8.7.79,2.64.53,5.1,1.27,7.36,2.21,2.27.95,4.46,2.12,6.57,3.48,2.11,1.38,4.22,2.95,6.33,4.75l15.35-18.51c-2.85-2.43-5.8-4.59-8.86-6.49-3.06-1.9-6.33-3.48-9.81-4.75-3.48-1.27-7.25-2.25-11.31-2.93-4.06-.68-8.57-1.02-13.53-1.02-8.44,0-16.19,1.51-23.26,4.51-7.07,3.01-13.18,7.12-18.35,12.35-5.17,5.22-9.2,11.29-12.1,18.2-2.9,6.91-4.35,14.32-4.35,22.23v.32c0,8.23,1.42,15.82,4.27,22.79,2.85,6.96,6.83,12.97,11.95,18.04,5.12,5.06,11.23,9.02,18.35,11.86s15.01,4.27,23.66,4.27c10.13,0,19.12-1.72,26.98-5.14,7.86-3.42,14.64-7.57,20.33-12.42M660.35,892.29v-110.77h-24.05v68.2l-51.9-68.2h-22.47v110.77h24.05v-70.42l53.65,70.42h20.73ZM534.23,892.29v-110.77h-24.37v110.77h24.37ZM461.59,837.22c0,4.96-.82,9.44-2.45,13.45-1.63,4-3.91,7.49-6.81,10.44-2.9,2.95-6.41,5.23-10.52,6.8-4.11,1.59-8.65,2.38-13.61,2.38h-18.83v-66.78h18.83c4.96,0,9.5.82,13.61,2.46,4.11,1.63,7.62,3.92,10.52,6.88,2.9,2.95,5.17,6.49,6.81,10.6,1.63,4.12,2.45,8.6,2.45,13.45v.32ZM487.07,836.9v-.32c0-7.8-1.43-15.05-4.27-21.76-2.85-6.7-6.88-12.52-12.11-17.48-5.22-4.96-11.44-8.84-18.67-11.63-7.23-2.8-15.17-4.2-23.82-4.2h-43.2v110.77h43.2c8.65,0,16.59-1.42,23.82-4.27s13.45-6.75,18.67-11.71c5.23-4.96,9.26-10.82,12.11-17.57,2.84-6.75,4.27-14.03,4.27-21.83ZM366.65,892.29v-22h-55.23v-88.78h-24.37v110.77h79.6ZM259.36,892.29v-110.77h-24.37v110.77h24.37ZM209.04,844.02v-62.51h-24.37v63.46c0,8.86-2.11,15.5-6.33,19.94-4.22,4.43-10.07,6.64-17.56,6.64s-13.34-2.29-17.56-6.88c-4.22-4.59-6.33-11.43-6.33-20.5v-62.66h-24.37v63.3c0,16.36,4.27,28.65,12.82,36.87s20.26,12.34,35.13,12.34c7.38,0,14.08-1.02,20.09-3.08,6.01-2.05,11.13-5.17,15.35-9.33,4.22-4.17,7.46-9.36,9.73-15.58,2.27-6.23,3.41-13.56,3.41-22ZM69.94,858.89c0,4.11-1.53,7.15-4.59,9.1-3.06,1.95-7.27,2.93-12.66,2.93h-28.96v-24.37h28.17c6.33,0,10.92,1.08,13.77,3.25,2.85,2.16,4.27,5.09,4.27,8.78v.32ZM63.77,814.58c0,4.12-1.58,7.1-4.75,8.94s-7.44,2.77-12.82,2.77h-22.47v-23.42h24.05c5.17,0,9.12.98,11.86,2.93,2.75,1.95,4.12,4.78,4.12,8.46v.32ZM94,861.9v-.32c0-7.38-1.85-13.16-5.51-17.32-3.67-4.17-8.73-7.46-15.11-9.89,1.98-1.06,3.85-2.32,5.57-3.8,1.74-1.47,3.24-3.19,4.56-5.14s2.35-4.14,3.14-6.57c.79-2.43,1.19-5.22,1.19-8.38v-.32c0-8.76-3.24-15.72-9.71-20.89-6.49-5.17-15.41-7.75-26.77-7.75H0v110.77h52.62c6.2,0,11.87-.64,16.98-1.9,5.09-1.26,9.47-3.17,13.11-5.7,3.61-2.53,6.41-5.7,8.36-9.49,1.96-3.8,2.93-8.23,2.93-13.3Z"/>
      <path class="cls-1" d="M621.84,963.95v-36.5h-7.93v22.47l-17.1-22.47h-7.4v36.5h7.92v-23.21l17.68,23.21h6.83ZM572.94,958.79v-15.85h-15.85v6.93h8.08v5.25c-2.05,1.47-4.57,2.21-7.56,2.21-1.64,0-3.12-.28-4.46-.86-1.34-.57-2.5-1.38-3.5-2.43-.99-1.04-1.75-2.26-2.29-3.68-.54-1.41-.81-2.96-.81-4.63v-.1c0-1.56.27-3.04.81-4.42.54-1.38,1.29-2.58,2.24-3.6.96-1.02,2.07-1.85,3.34-2.46,1.27-.61,2.63-.91,4.09-.91,1.04,0,2,.08,2.87.26.87.17,1.68.42,2.43.72.74.32,1.46.7,2.16,1.15.69.46,1.39.98,2.09,1.56l5.06-6.1c-.94-.8-1.91-1.51-2.92-2.14-1-.63-2.08-1.15-3.23-1.56-1.15-.42-2.39-.74-3.73-.97-1.33-.22-2.82-.33-4.46-.33-2.78,0-5.33.5-7.67,1.48-2.33.99-4.35,2.35-6.05,4.07-1.7,1.73-3.03,3.72-3.99,6-.96,2.28-1.43,4.72-1.43,7.32v.1c0,2.71.47,5.22,1.41,7.51.94,2.29,2.25,4.27,3.94,5.94,1.69,1.67,3.7,2.97,6.05,3.92,2.34.94,4.94,1.41,7.8,1.41,3.34,0,6.3-.57,8.89-1.7,2.59-1.12,4.82-2.49,6.7-4.08ZM521.91,963.95v-36.5h-8.03v36.5h8.03ZM497.77,953.16v-.11c0-1.6-.25-2.98-.75-4.13s-1.26-2.14-2.25-2.99c-.99-.85-2.21-1.58-3.66-2.19-1.44-.61-3.09-1.16-4.94-1.65-1.57-.41-2.86-.78-3.9-1.1-1.02-.31-1.84-.64-2.43-.99-.59-.35-1-.74-1.23-1.17-.23-.44-.34-.95-.34-1.54v-.1c0-.9.39-1.66,1.18-2.27.78-.61,1.95-.91,3.52-.91s3.13.32,4.69.97c1.57.64,3.17,1.51,4.8,2.63l4.17-6.05c-1.88-1.5-3.94-2.65-6.18-3.44-2.24-.8-4.7-1.2-7.38-1.2-1.88,0-3.6.26-5.15.78-1.56.52-2.9,1.27-4.02,2.24-1.12.98-1.99,2.13-2.62,3.47-.62,1.34-.93,2.85-.93,4.51v.1c0,1.81.28,3.32.86,4.54.57,1.21,1.39,2.23,2.43,3.05,1.04.81,2.32,1.5,3.82,2.06,1.51.55,3.17,1.06,5.02,1.51,1.53.37,2.78.74,3.74,1.09.96.35,1.7.69,2.25,1.04.54.35.9.73,1.09,1.12.19.4.29.86.29,1.38v.1c0,1.08-.46,1.93-1.38,2.53-.92.61-2.21.92-3.89.92-2.08,0-4.01-.41-5.76-1.2s-3.47-1.88-5.13-3.23l-4.74,5.68c2.19,1.99,4.62,3.45,7.3,4.41,2.68.95,5.4,1.43,8.19,1.43,1.98,0,3.79-.25,5.41-.76,1.63-.5,3.04-1.24,4.21-2.19,1.17-.96,2.09-2.14,2.75-3.55.65-1.41.98-3.01.98-4.82ZM455.44,963.95v-7.15h-19.81v-7.67h17.21v-7.15h-17.21v-7.41h19.56v-7.14h-27.48v36.5h27.74ZM403.42,945.8c0,1.64-.27,3.11-.81,4.44-.54,1.32-1.29,2.47-2.24,3.44-.96.97-2.11,1.72-3.47,2.24-1.36.52-2.85.78-4.48.78h-6.21v-22h6.21c1.63,0,3.12.27,4.48.81,1.35.54,2.51,1.29,3.47,2.26.96.98,1.7,2.14,2.24,3.5.54,1.35.81,2.83.81,4.43v.11ZM411.81,945.7v-.1c0-2.58-.47-4.97-1.4-7.18-.94-2.21-2.27-4.13-3.99-5.76-1.72-1.63-3.77-2.91-6.15-3.82-2.38-.93-5-1.38-7.84-1.38h-14.24v36.5h14.24c2.85,0,5.47-.47,7.84-1.41s4.43-2.23,6.15-3.86c1.72-1.64,3.05-3.56,3.99-5.79.94-2.22,1.4-4.62,1.4-7.19ZM338.24,945.8c0,1.56-.27,3.03-.81,4.41-.54,1.37-1.29,2.58-2.24,3.62-.96,1.04-2.11,1.85-3.47,2.45-1.36.59-2.84.89-4.44.89s-3.12-.31-4.46-.91c-1.34-.61-2.51-1.43-3.5-2.48-.99-1.04-1.75-2.25-2.29-3.65-.54-1.39-.81-2.87-.81-4.44v-.1c0-1.57.27-3.03.81-4.41.54-1.38,1.29-2.58,2.24-3.62.96-1.05,2.1-1.86,3.44-2.45,1.34-.59,2.82-.89,4.46-.89s3.08.3,4.44.91c1.35.6,2.53,1.43,3.52,2.47.99,1.04,1.75,2.26,2.29,3.65.54,1.38.81,2.86.81,4.43v.11h0ZM346.64,945.7v-.1c0-2.61-.48-5.05-1.44-7.33-.96-2.28-2.29-4.26-4.02-5.94-1.72-1.69-3.76-3.03-6.12-4.02-2.36-.99-4.95-1.48-7.77-1.48s-5.41.5-7.8,1.48c-2.38.99-4.43,2.35-6.15,4.07-1.72,1.73-3.07,3.72-4.04,6-.97,2.28-1.46,4.72-1.46,7.32v.1c0,2.6.48,5.05,1.44,7.32.96,2.28,2.29,4.26,4.02,5.95,1.72,1.69,3.76,3.03,6.12,4.01,2.36.99,4.96,1.49,7.77,1.49s5.42-.5,7.8-1.49c2.39-.98,4.43-2.34,6.15-4.07,1.73-1.72,3.07-3.72,4.04-6,.97-2.27,1.46-4.72,1.46-7.32ZM292.99,958.79v-15.85h-15.85v6.93h8.08v5.25c-2.05,1.47-4.57,2.21-7.56,2.21-1.63,0-3.12-.28-4.46-.86-1.34-.57-2.51-1.38-3.5-2.43-.99-1.04-1.76-2.26-2.29-3.68-.54-1.41-.81-2.96-.81-4.63v-.1c0-1.56.27-3.04.81-4.42.54-1.38,1.28-2.58,2.24-3.6.96-1.02,2.07-1.85,3.34-2.46,1.27-.61,2.63-.91,4.09-.91,1.04,0,2,.08,2.87.26.87.17,1.68.42,2.42.72.75.32,1.47.7,2.17,1.15.69.46,1.39.98,2.08,1.56l5.06-6.1c-.94-.8-1.91-1.51-2.92-2.14-1-.63-2.08-1.15-3.23-1.56s-2.39-.74-3.73-.97c-1.34-.22-2.82-.33-4.46-.33-2.78,0-5.33.5-7.67,1.48-2.33.99-4.34,2.35-6.05,4.07-1.71,1.73-3.04,3.72-3.99,6-.96,2.28-1.44,4.72-1.44,7.32v.1c0,2.71.47,5.22,1.41,7.51.94,2.29,2.25,4.27,3.94,5.94,1.69,1.67,3.7,2.97,6.05,3.92,2.34.94,4.94,1.41,7.79,1.41,3.34,0,6.3-.57,8.89-1.7,2.59-1.12,4.82-2.49,6.7-4.08ZM235.54,945.8c0,1.56-.27,3.03-.81,4.41-.54,1.37-1.29,2.58-2.24,3.62-.96,1.04-2.12,1.85-3.47,2.45-1.35.59-2.83.89-4.43.89s-3.12-.31-4.46-.91c-1.33-.61-2.5-1.43-3.5-2.48-.99-1.04-1.75-2.25-2.29-3.65-.54-1.39-.81-2.87-.81-4.44v-.1c0-1.57.27-3.03.81-4.41.54-1.38,1.28-2.58,2.24-3.62.96-1.05,2.1-1.86,3.44-2.45,1.34-.59,2.82-.89,4.46-.89s3.08.3,4.44.91c1.35.6,2.53,1.43,3.52,2.47.99,1.04,1.75,2.26,2.29,3.65.54,1.38.81,2.86.81,4.43v.11ZM243.93,945.7v-.1c0-2.61-.48-5.05-1.43-7.33-.96-2.28-2.29-4.26-4.02-5.94-1.72-1.69-3.76-3.03-6.12-4.02-2.37-.99-4.96-1.48-7.77-1.48s-5.42.5-7.8,1.48c-2.38.99-4.43,2.35-6.15,4.07-1.72,1.73-3.07,3.72-4.04,6-.97,2.28-1.46,4.72-1.46,7.32v.1c0,2.6.48,5.05,1.44,7.32.95,2.28,2.29,4.26,4.01,5.95,1.72,1.69,3.76,3.03,6.13,4.01,2.36.99,4.96,1.49,7.77,1.49s5.42-.5,7.8-1.49c2.38-.98,4.43-2.34,6.15-4.07,1.72-1.72,3.07-3.72,4.04-6,.97-2.27,1.46-4.72,1.46-7.32ZM191.96,963.95v-7.25h-18.2v-29.25h-8.03v36.5h26.22Z"/>
      <path class="cls-2" d="M724.29,724.72h-250.46v-339.76l53.37,30.8v266.97l197.09,41.99ZM580.56,639.54v-254.59l-160.09-92.42v432.19h-53.36V92.42l-160.09,92.42v454.7l-53.36,11.37V154.03L420.47,0v230.92l213.45,123.23v296.76l-53.36-11.37ZM63.29,724.72h250.46V184.84l-53.36,30.81v467.07l-197.1,41.99Z"/>
    </g>
  </g>
</svg>