<?xml version="1.0" encoding="UTF-8"?>
<svg id="Layer_2" data-name="Layer 2" xmlns="http://www.w3.org/2000/svg" width="787.57" height="964.58" viewBox="0 0 787.57 964.58">
  <defs>
    <style>
      .cls-1, .cls-2 {
        fill: #02303f;
      }

      .cls-2 {
        fill-rule: evenodd;
      }
    </style>
  </defs>
  <g id="Layer_1-2" data-name="Layer 1">
    <g>
      <path class="cls-1" d="M787.57,876.62v-48.11h-48.1v21.05h24.53v15.93c-6.23,4.46-13.88,6.7-22.94,6.7-4.96,0-9.47-.87-13.53-2.61-4.06-1.74-7.6-4.22-10.6-7.39-3.01-3.17-5.33-6.89-6.96-11.18-1.64-4.27-2.45-8.97-2.45-14.03v-.32c0-4.74.82-9.23,2.45-13.4,1.64-4.19,3.91-7.83,6.8-10.95,2.9-3.11,6.28-5.62,10.13-7.46,3.85-1.84,7.99-2.77,12.42-2.77,3.17,0,6.06.27,8.7.79,2.64.53,5.09,1.27,7.36,2.21,2.27.95,4.46,2.11,6.56,3.48,2.11,1.37,4.22,2.95,6.33,4.75l15.35-18.51c-2.85-2.43-5.8-4.59-8.86-6.49-3.06-1.9-6.33-3.48-9.81-4.75-3.48-1.27-7.25-2.24-11.32-2.93-4.06-.68-8.57-1.03-13.53-1.03-8.44,0-16.19,1.5-23.26,4.51-7.07,3.01-13.19,7.12-18.36,12.34-5.17,5.22-9.2,11.29-12.1,18.2-2.91,6.91-4.35,14.32-4.35,22.23v.32c0,8.23,1.43,15.82,4.27,22.79,2.85,6.96,6.83,12.98,11.95,18.04,5.12,5.06,11.23,9.02,18.35,11.86,7.12,2.85,15.01,4.27,23.66,4.27,10.12,0,19.12-1.71,26.98-5.14,7.86-3.43,14.64-7.57,20.33-12.42M660.35,892.29v-110.77h-24.05v68.2l-51.9-68.2h-22.47v110.77h24.05v-70.42l53.65,70.42h20.73ZM534.23,892.29v-110.77h-24.37v110.77h24.37ZM461.59,837.21c0,4.96-.82,9.44-2.45,13.45-1.64,4.01-3.91,7.49-6.8,10.44-2.91,2.95-6.41,5.22-10.53,6.8-4.11,1.59-8.65,2.38-13.61,2.38h-18.83v-66.78h18.83c4.96,0,9.49.82,13.61,2.45,4.11,1.64,7.62,3.93,10.53,6.89,2.9,2.95,5.17,6.49,6.8,10.6,1.63,4.11,2.45,8.6,2.45,13.45v.32ZM487.07,836.9v-.32c0-7.8-1.43-15.06-4.27-21.76-2.85-6.7-6.89-12.53-12.11-17.48-5.22-4.96-11.44-8.83-18.67-11.63-7.23-2.8-15.17-4.19-23.82-4.19h-43.2v110.77h43.2c8.65,0,16.59-1.42,23.82-4.27,7.23-2.85,13.45-6.75,18.67-11.71,5.23-4.96,9.26-10.81,12.11-17.57,2.85-6.75,4.27-14.04,4.27-21.84ZM366.65,892.29v-22h-55.23v-88.77h-24.37v110.77h79.6ZM259.36,892.29v-110.77h-24.37v110.77h24.37ZM209.04,844.02v-62.5h-24.37v63.46c0,8.86-2.11,15.51-6.33,19.94-4.22,4.43-10.07,6.65-17.56,6.65s-13.34-2.3-17.56-6.88c-4.22-4.59-6.33-11.43-6.33-20.5v-62.66h-24.37v63.3c0,16.35,4.27,28.64,12.82,36.87,8.54,8.23,20.25,12.34,35.13,12.34,7.39,0,14.08-1.03,20.1-3.08,6.01-2.06,11.13-5.17,15.35-9.34,4.22-4.17,7.46-9.36,9.73-15.58,2.27-6.23,3.4-13.56,3.4-22ZM69.95,858.9c0,4.11-1.53,7.15-4.59,9.1-3.06,1.95-7.28,2.93-12.66,2.93h-28.96v-24.37h28.17c6.33,0,10.92,1.08,13.77,3.25,2.85,2.16,4.27,5.09,4.27,8.78v.32h0ZM63.77,814.59c0,4.11-1.58,7.09-4.75,8.94-3.17,1.85-7.44,2.77-12.82,2.77h-22.47v-23.42h24.05c5.17,0,9.13.98,11.87,2.93,2.74,1.95,4.11,4.78,4.11,8.47v.32h0ZM94,861.9v-.32c0-7.39-1.85-13.16-5.51-17.33-3.67-4.17-8.73-7.47-15.11-9.89,1.98-1.05,3.85-2.32,5.57-3.8,1.74-1.48,3.24-3.19,4.56-5.14,1.32-1.95,2.35-4.14,3.14-6.57.79-2.43,1.19-5.22,1.19-8.39v-.32c0-8.76-3.24-15.72-9.71-20.89-6.49-5.17-15.4-7.75-26.77-7.75H0v110.77h52.62c6.2,0,11.87-.64,16.98-1.9,5.09-1.27,9.47-3.17,13.11-5.7,3.61-2.54,6.41-5.7,8.36-9.49,1.95-3.8,2.93-8.23,2.93-13.3Z"/>
      <path class="cls-1" d="M621.85,963.95v-36.5h-7.93v22.48l-17.11-22.48h-7.4v36.5h7.92v-23.2l17.68,23.2h6.83ZM572.94,958.79v-15.85h-15.85v6.93h8.08v5.25c-2.05,1.47-4.57,2.21-7.56,2.21-1.64,0-3.12-.29-4.46-.85-1.33-.58-2.5-1.39-3.49-2.43-.99-1.04-1.76-2.27-2.29-3.69-.54-1.41-.81-2.95-.81-4.62v-.11c0-1.56.27-3.04.81-4.41.54-1.38,1.29-2.59,2.24-3.61s2.07-1.85,3.34-2.46,2.63-.91,4.09-.91c1.04,0,2,.09,2.87.26s1.68.42,2.43.73c.75.31,1.47.69,2.17,1.15.69.45,1.39.97,2.08,1.56l5.06-6.1c-.94-.8-1.91-1.51-2.92-2.14-1-.62-2.08-1.14-3.23-1.56-1.15-.42-2.39-.73-3.73-.96-1.34-.23-2.82-.34-4.46-.34-2.78,0-5.33.5-7.67,1.49-2.33.99-4.34,2.34-6.05,4.06-1.7,1.72-3.03,3.72-3.99,6s-1.43,4.72-1.43,7.33v.1c0,2.72.47,5.22,1.41,7.51s2.25,4.27,3.94,5.95c1.69,1.67,3.7,2.97,6.05,3.91,2.35.94,4.94,1.41,7.8,1.41,3.34,0,6.3-.56,8.89-1.69,2.59-1.13,4.83-2.5,6.7-4.09ZM521.9,963.95v-36.5h-8.03v36.5h8.03ZM497.77,953.16v-.11c0-1.59-.25-2.97-.75-4.12s-1.26-2.15-2.25-3c-.99-.85-2.22-1.58-3.66-2.19-1.44-.6-3.09-1.16-4.94-1.64-1.56-.42-2.86-.78-3.89-1.09-1.02-.32-1.83-.64-2.43-.99-.59-.35-1-.74-1.23-1.17s-.34-.94-.34-1.54v-.11c0-.9.4-1.66,1.18-2.27.78-.6,1.96-.91,3.52-.91s3.13.32,4.69.97c1.57.64,3.17,1.52,4.8,2.63l4.18-6.05c-1.88-1.49-3.94-2.64-6.18-3.44-2.24-.8-4.7-1.2-7.38-1.2-1.88,0-3.6.26-5.15.78-1.56.52-2.91,1.27-4.03,2.25-1.12.97-1.99,2.12-2.62,3.47-.61,1.33-.93,2.84-.93,4.51v.11c0,1.81.29,3.32.86,4.53.58,1.22,1.39,2.24,2.43,3.05,1.05.81,2.32,1.51,3.82,2.06,1.5.55,3.17,1.06,5.02,1.51,1.53.38,2.78.75,3.74,1.09.96.35,1.7.7,2.25,1.04.54.35.9.72,1.09,1.12.19.4.29.86.29,1.38v.11c0,1.07-.46,1.92-1.38,2.53-.92.61-2.21.91-3.88.91-2.09,0-4.01-.4-5.77-1.2-1.75-.8-3.47-1.87-5.14-3.23l-4.74,5.68c2.19,1.98,4.62,3.46,7.3,4.41s5.4,1.43,8.19,1.43c1.98,0,3.79-.25,5.42-.76,1.62-.5,3.03-1.23,4.2-2.19,1.17-.95,2.09-2.13,2.75-3.54.65-1.41.98-3.02.98-4.83ZM455.44,963.95v-7.15h-19.81v-7.66h17.21v-7.15h-17.21v-7.41h19.55v-7.15h-27.48v36.5h27.74ZM403.41,945.8c0,1.64-.27,3.12-.81,4.44s-1.29,2.47-2.24,3.44-2.11,1.72-3.47,2.25c-1.35.52-2.85.77-4.48.77h-6.21v-22h6.21c1.63,0,3.13.27,4.48.81s2.51,1.29,3.47,2.27c.96.97,1.71,2.14,2.24,3.49.54,1.35.81,2.83.81,4.44v.1ZM411.81,945.7v-.11c0-2.57-.47-4.96-1.41-7.17-.94-2.21-2.27-4.13-3.99-5.76-1.72-1.64-3.77-2.91-6.16-3.83-2.38-.92-5-1.38-7.85-1.38h-14.24v36.5h14.24c2.85,0,5.47-.46,7.85-1.41,2.38-.94,4.44-2.22,6.16-3.86,1.72-1.64,3.05-3.56,3.99-5.79.94-2.23,1.41-4.62,1.41-7.2ZM338.24,945.8c0,1.57-.27,3.04-.81,4.41-.54,1.37-1.29,2.58-2.24,3.62-.96,1.04-2.11,1.86-3.47,2.45-1.35.59-2.83.89-4.43.89s-3.12-.3-4.46-.91-2.5-1.43-3.5-2.47c-.99-1.04-1.75-2.26-2.29-3.65-.54-1.39-.81-2.86-.81-4.43v-.11c0-1.56.27-3.04.81-4.41.54-1.37,1.29-2.58,2.24-3.62.96-1.04,2.1-1.86,3.44-2.45,1.34-.59,2.82-.89,4.46-.89s3.08.3,4.43.91c1.35.61,2.53,1.43,3.52,2.47.99,1.05,1.76,2.26,2.29,3.65s.81,2.86.81,4.44v.1h0ZM346.64,945.7v-.11c0-2.61-.48-5.05-1.44-7.32-.96-2.28-2.29-4.26-4.01-5.95-1.72-1.69-3.76-3.02-6.13-4.01-2.36-.99-4.95-1.49-7.77-1.49s-5.41.5-7.79,1.49c-2.38.99-4.43,2.34-6.15,4.06-1.72,1.72-3.07,3.72-4.04,6s-1.46,4.72-1.46,7.33v.1c0,2.61.48,5.05,1.43,7.33.96,2.27,2.29,4.26,4.01,5.94,1.72,1.69,3.76,3.03,6.13,4.02,2.37.98,4.96,1.48,7.77,1.48s5.41-.5,7.79-1.48c2.38-.99,4.43-2.35,6.15-4.07,1.72-1.72,3.07-3.72,4.04-6,.97-2.28,1.46-4.72,1.46-7.33ZM292.99,958.79v-15.85h-15.85v6.93h8.08v5.25c-2.05,1.47-4.57,2.21-7.56,2.21-1.63,0-3.12-.29-4.46-.85-1.34-.58-2.51-1.39-3.5-2.43-.99-1.04-1.76-2.27-2.29-3.69-.54-1.41-.81-2.95-.81-4.62v-.11c0-1.56.27-3.04.81-4.41.54-1.38,1.29-2.59,2.24-3.61.96-1.03,2.07-1.85,3.34-2.46s2.63-.91,4.09-.91c1.04,0,2,.09,2.87.26.87.17,1.68.42,2.43.73.75.31,1.47.69,2.17,1.15.69.45,1.39.97,2.08,1.56l5.06-6.1c-.94-.8-1.91-1.51-2.92-2.14-1-.62-2.08-1.14-3.23-1.56-1.15-.42-2.39-.73-3.73-.96-1.34-.23-2.82-.34-4.46-.34-2.78,0-5.33.5-7.67,1.49-2.33.99-4.34,2.34-6.05,4.06-1.7,1.72-3.04,3.72-3.99,6-.96,2.28-1.44,4.72-1.44,7.33v.1c0,2.72.47,5.22,1.41,7.51.94,2.3,2.25,4.27,3.94,5.95,1.69,1.67,3.7,2.97,6.05,3.91,2.35.94,4.94,1.41,7.79,1.41,3.34,0,6.3-.56,8.89-1.69,2.59-1.13,4.82-2.5,6.7-4.09ZM235.54,945.8c0,1.57-.27,3.04-.81,4.41-.54,1.37-1.29,2.58-2.24,3.62s-2.11,1.86-3.47,2.45c-1.35.59-2.83.89-4.43.89s-3.12-.3-4.46-.91c-1.34-.61-2.5-1.43-3.5-2.47-.99-1.04-1.75-2.26-2.29-3.65s-.81-2.86-.81-4.43v-.11c0-1.56.27-3.04.81-4.41.54-1.37,1.28-2.58,2.24-3.62s2.1-1.86,3.44-2.45c1.34-.59,2.82-.89,4.46-.89s3.08.3,4.43.91c1.35.61,2.53,1.43,3.52,2.47.99,1.05,1.75,2.26,2.29,3.65s.81,2.86.81,4.44v.1h0ZM243.94,945.7v-.11c0-2.61-.48-5.05-1.44-7.32-.96-2.28-2.29-4.26-4.02-5.95s-3.76-3.02-6.12-4.01c-2.37-.99-4.96-1.49-7.77-1.49s-5.41.5-7.8,1.49c-2.38.99-4.43,2.34-6.15,4.06-1.72,1.72-3.07,3.72-4.04,6-.97,2.28-1.46,4.72-1.46,7.33v.1c0,2.61.48,5.05,1.43,7.33.95,2.27,2.29,4.26,4.01,5.94,1.72,1.69,3.76,3.03,6.13,4.02,2.36.98,4.96,1.48,7.77,1.48s5.41-.5,7.79-1.48c2.38-.99,4.43-2.35,6.15-4.07,1.72-1.72,3.07-3.72,4.04-6s1.46-4.72,1.46-7.33ZM191.96,963.95v-7.25h-18.2v-29.25h-8.03v36.5h26.23Z"/>
      <path class="cls-2" d="M318.77,178.67l-251.07,251.07c-4.47-21.76-6.82-44.3-6.82-67.38C60.88,178.5,209.93,29.45,393.79,29.45s332.91,149.05,332.91,332.91c0,23.09-2.35,45.63-6.82,67.39-87.91-87.91-179.19-179.19-251.07-251.08l-75.02,75.02-75.02-75.02ZM127.78,562.57l295.46-295.46,259.94,259.94c-57.31,100.48-165.44,168.22-289.39,168.22-108.71,0-205.25-52.11-266.01-132.7ZM418.5,436.47h-42.06v42.07h42.06v-42.07ZM427.99,436.47v42.07h42.06v-42.07h-42.06ZM470.05,488.02h-42.06v42.07h42.06v-42.07ZM418.5,530.09v-42.07h-42.06v42.07h42.06ZM273.21,267.11l53.58,53.58-237.76,237.76c64.49,100.03,176.89,166.26,304.76,166.26,200.13,0,362.36-162.23,362.36-362.35S593.91,0,393.79,0,31.43,162.23,31.43,362.36c0,43.76,7.76,85.71,21.98,124.55l219.8-219.8Z"/>
    </g>
  </g>
</svg>